<svg width="13" height="14" viewBox="0 0 13 14" fill="none" xmlns="http://www.w3.org/2000/svg">
<path fill-rule="evenodd" clip-rule="evenodd" d="M3.79871 4.72841L6.00494 1.05137L5.26178 0.605469L2.78801 4.72841H0.609437C0.272854 4.72841 0 5.00128 0 5.33785V5.71811C0 8.26923 0.593967 10.7853 1.73486 13.0671C1.83537 13.2681 2.04081 13.3951 2.26554 13.3951H10.7344C10.9592 13.3951 11.1647 13.2681 11.2651 13.0671C12.4061 10.7853 13 8.26923 13 5.71811V5.33785C13 5.00128 12.7272 4.72841 12.3906 4.72841H10.212L7.73828 0.605469L6.99512 1.05137L9.20131 4.72841H3.79871ZM4.33333 9.06175H8.66667V8.19508H4.33333V9.06175Z" fill="white"/>
</svg>
