<svg width="193" height="32" viewBox="0 0 193 32" fill="none" xmlns="http://www.w3.org/2000/svg">
<g clip-path="url(#clip0_318_1183)">
<path d="M28.9935 24.4552H39.0056L14.2036 1.73242H4.19141L28.9935 24.4552Z" fill="#7476ED"/>
<path d="M19.3477 1.73242L43.2564 23.6367V1.73242H36.7863V8.64802L29.2378 1.73242L19.3477 1.73242Z" fill="#E56F8C"/>
<path d="M0 2.49316V24.4551H6.47012V17.5395L14.0185 24.4551H23.9718L0 2.49316Z" fill="#64C2DB"/>
<path d="M58.8709 21.0385H64.668V24.1683H54.4453V7.52344H58.8709V21.0385Z" fill="#3A3B7B"/>
<path d="M72.5747 24.358C71.1598 24.358 69.883 24.0814 68.7443 23.5281C67.6228 22.9748 66.7343 22.1845 66.0786 21.1571C65.4403 20.1295 65.1211 18.9282 65.1211 17.553C65.1211 16.1937 65.4488 15.0001 66.1045 13.9727C66.7602 12.9294 67.6573 12.1312 68.796 11.5779C69.9349 11.0247 71.2116 10.748 72.6264 10.748C74.0412 10.748 75.3179 11.0247 76.4567 11.5779C77.5954 12.1312 78.4926 12.9294 79.1483 13.9727C79.8039 15.0001 80.1317 16.1937 80.1317 17.553C80.1317 18.9124 79.7953 20.1137 79.1223 21.1571C78.4668 22.1845 77.5609 22.9748 76.4049 23.5281C75.2662 24.0814 73.9894 24.358 72.5747 24.358ZM72.5747 20.8488C73.4201 20.8488 74.1361 20.5643 74.7227 19.9952C75.3265 19.4261 75.6285 18.6121 75.6285 17.553C75.6285 16.4939 75.3352 15.6799 74.7486 15.1108C74.1792 14.5418 73.4718 14.2573 72.6264 14.2573C71.7637 14.2573 71.0476 14.5418 70.4783 15.1108C69.9089 15.6641 69.6243 16.4782 69.6243 17.553C69.6243 18.6121 69.9003 19.4261 70.4524 19.9952C71.0218 20.5643 71.7292 20.8488 72.5747 20.8488Z" fill="#3A3B7B"/>
<path d="M87.1908 10.748C88.2088 10.748 89.0974 10.9377 89.8565 11.3171C90.6329 11.6965 91.2282 12.1944 91.6423 12.8109V10.9377H96.0678V24.1446C96.0678 25.3618 95.8004 26.4603 95.2655 27.4403C94.7479 28.4362 93.9456 29.2265 92.8586 29.8114C91.7889 30.3963 90.4517 30.6888 88.8472 30.6888C86.7077 30.6888 84.9738 30.2224 83.6452 29.2897C82.3167 28.3729 81.5576 27.1242 81.3677 25.5435H85.7415C85.8795 26.0493 86.2074 26.4445 86.725 26.729C87.2427 27.0294 87.8809 27.1795 88.6402 27.1795C89.5546 27.1795 90.2792 26.9346 90.8142 26.4445C91.3662 25.9703 91.6423 25.2037 91.6423 24.1446V22.2714C91.2109 22.8879 90.6157 23.3937 89.8565 23.7889C89.0974 24.1682 88.2088 24.358 87.1908 24.358C86.0004 24.358 84.9219 24.0814 83.9558 23.5281C82.9895 22.959 82.2218 22.1608 81.6525 21.1333C81.1003 20.0901 80.8242 18.8888 80.8242 17.5293C80.8242 16.1699 81.1003 14.9765 81.6525 13.949C82.2218 12.9216 82.9895 12.1312 83.9558 11.5779C84.9219 11.0247 86.0004 10.748 87.1908 10.748ZM91.6423 17.553C91.6423 16.5414 91.3317 15.7431 90.7106 15.1582C90.1067 14.5733 89.3648 14.2809 88.4849 14.2809C87.6049 14.2809 86.8544 14.5733 86.2333 15.1582C85.6293 15.7273 85.3274 16.5176 85.3274 17.5293C85.3274 18.541 85.6293 19.3471 86.2333 19.9478C86.8544 20.5327 87.6049 20.825 88.4849 20.825C89.3648 20.825 90.1067 20.5327 90.7106 19.9478C91.3317 19.3629 91.6423 18.5646 91.6423 17.553Z" fill="#3A3B7B"/>
<path d="M105.067 24.358C103.652 24.358 102.375 24.0814 101.236 23.5281C100.115 22.9748 99.2265 22.1845 98.5709 21.1571C97.9325 20.1295 97.6133 18.9282 97.6133 17.553C97.6133 16.1937 97.9411 15.0001 98.5967 13.9727C99.2524 12.9294 100.15 12.1312 101.288 11.5779C102.427 11.0247 103.704 10.748 105.119 10.748C106.533 10.748 107.81 11.0247 108.949 11.5779C110.088 12.1312 110.985 12.9294 111.64 13.9727C112.296 15.0001 112.624 16.1937 112.624 17.553C112.624 18.9124 112.287 20.1137 111.615 21.1571C110.959 22.1845 110.053 22.9748 108.897 23.5281C107.758 24.0814 106.482 24.358 105.067 24.358ZM105.067 20.8488C105.912 20.8488 106.628 20.5643 107.215 19.9952C107.819 19.4261 108.121 18.6121 108.121 17.553C108.121 16.4939 107.827 15.6799 107.241 15.1108C106.671 14.5418 105.964 14.2573 105.119 14.2573C104.256 14.2573 103.54 14.5418 102.971 15.1108C102.401 15.6641 102.116 16.4782 102.116 17.553C102.116 18.6121 102.393 19.4261 102.945 19.9952C103.514 20.5643 104.221 20.8488 105.067 20.8488Z" fill="#3A3B7B"/>
<path d="M116.421 9.56324C115.645 9.56324 115.006 9.35774 114.506 8.94676C114.023 8.51996 113.781 7.99834 113.781 7.38185C113.781 6.74957 114.023 6.22793 114.506 5.81695C115.006 5.39015 115.645 5.17676 116.421 5.17676C117.18 5.17676 117.801 5.39015 118.284 5.81695C118.785 6.22793 119.035 6.74957 119.035 7.38185C119.035 7.99834 118.785 8.51996 118.284 8.94676C117.801 9.35774 117.18 9.56324 116.421 9.56324ZM118.621 10.9385V24.169H114.195V10.9385H118.621Z" fill="#3A3B7B"/>
<path d="M125.476 12.8109C125.908 12.1944 126.503 11.6965 127.262 11.3171C128.021 10.9377 128.91 10.748 129.928 10.748C131.119 10.748 132.197 11.0247 133.163 11.5779C134.129 12.1312 134.888 12.9216 135.44 13.949C136.01 14.9765 136.295 16.1699 136.295 17.5293C136.295 18.8888 136.01 20.0901 135.44 21.1333C134.888 22.1608 134.129 22.959 133.163 23.5281C132.197 24.0814 131.119 24.358 129.928 24.358C128.927 24.358 128.038 24.1682 127.262 23.7889C126.503 23.4095 125.908 22.9195 125.476 22.3188V30.4754H121.051V10.9377H125.476V12.8109ZM131.791 17.5293C131.791 16.5176 131.481 15.7273 130.86 15.1582C130.256 14.5733 129.505 14.2809 128.608 14.2809C127.728 14.2809 126.978 14.5733 126.356 15.1582C125.753 15.7431 125.451 16.5414 125.451 17.553C125.451 18.5646 125.753 19.3629 126.356 19.9478C126.978 20.5327 127.728 20.825 128.608 20.825C129.488 20.825 130.239 20.5327 130.86 19.9478C131.481 19.3471 131.791 18.541 131.791 17.5293Z" fill="#3A3B7B"/>
<path d="M143.713 24.358C142.454 24.358 141.333 24.1604 140.35 23.7652C139.365 23.3701 138.589 22.8326 138.021 22.1529C137.451 21.4574 137.131 20.6828 137.062 19.8292H141.437C141.488 20.2876 141.721 20.6591 142.135 20.9437C142.549 21.2282 143.058 21.3705 143.662 21.3705C144.214 21.3705 144.636 21.2756 144.931 21.0859C145.241 20.8804 145.396 20.6196 145.396 20.3035C145.396 19.9241 145.18 19.6475 144.749 19.4735C144.317 19.2839 143.618 19.0784 142.653 18.8571C141.617 18.6358 140.754 18.4065 140.064 18.1695C139.374 17.9165 138.779 17.5293 138.278 17.0077C137.779 16.4703 137.528 15.751 137.528 14.8499C137.528 14.0912 137.753 13.4037 138.201 12.7871C138.667 12.1549 139.34 11.657 140.22 11.2934C141.117 10.9298 142.178 10.748 143.403 10.748C145.215 10.748 146.639 11.159 147.673 11.981C148.726 12.8029 149.33 13.8937 149.485 15.2531H145.396C145.326 14.7946 145.102 14.4311 144.723 14.1624C144.361 13.8937 143.877 13.7593 143.274 13.7593C142.757 13.7593 142.36 13.8541 142.083 14.0439C141.807 14.2177 141.67 14.4627 141.67 14.7788C141.67 15.1582 141.885 15.4428 142.316 15.6324C142.764 15.8222 143.455 16.0118 144.387 16.2015C145.457 16.4544 146.328 16.7073 147.001 16.9603C147.673 17.1973 148.26 17.5925 148.76 18.1458C149.278 18.6833 149.545 19.4103 149.563 20.3271C149.563 21.1018 149.321 21.7973 148.838 22.4137C148.372 23.0144 147.691 23.4886 146.794 23.8363C145.914 24.1841 144.887 24.358 143.713 24.358Z" fill="#3A3B7B"/>
<path d="M165.756 10.9385V24.169H161.33V22.3671C160.882 22.9519 160.27 23.4261 159.493 23.7897C158.734 24.1374 157.889 24.3113 156.957 24.3113C155.853 24.3113 154.877 24.0901 154.032 23.6474C153.187 23.189 152.532 22.533 152.066 21.6794C151.6 20.8258 151.367 19.8221 151.367 18.6682V10.9385H155.766V18.1228C155.766 19.008 156.017 19.6956 156.517 20.1856C157.017 20.6757 157.69 20.9207 158.535 20.9207C159.398 20.9207 160.079 20.6757 160.58 20.1856C161.081 19.6956 161.33 19.008 161.33 18.1228V10.9385H165.756Z" fill="#3A3B7B"/>
<path d="M186.582 10.7959C188.377 10.7959 189.801 11.2938 190.853 12.2896C191.923 13.2855 192.458 14.6686 192.458 16.439V24.1687H188.057V16.9843C188.057 16.1308 187.808 15.4749 187.307 15.0164C186.824 14.5422 186.152 14.3051 185.289 14.3051C184.426 14.3051 183.745 14.5422 183.244 15.0164C182.762 15.4749 182.52 16.1308 182.52 16.9843V24.1687H178.119V16.9843C178.119 16.1308 177.87 15.4749 177.369 15.0164C176.886 14.5422 176.213 14.3051 175.351 14.3051C174.488 14.3051 173.807 14.5422 173.306 15.0164C172.823 15.4749 172.582 16.1308 172.582 16.9843V24.1687H168.156V10.9382H172.582V12.5979C173.03 12.0447 173.616 11.61 174.341 11.2938C175.066 10.9619 175.885 10.7959 176.799 10.7959C177.886 10.7959 178.853 11.0093 179.699 11.4361C180.561 11.8629 181.234 12.4715 181.717 13.2618C182.218 12.5347 182.899 11.9419 183.762 11.4835C184.625 11.0251 185.565 10.7959 186.582 10.7959Z" fill="#3A3B7B"/>
</g>
<defs>
<clipPath id="clip0_318_1183">
<rect width="192.851" height="30.9769" fill="white" transform="translate(0 0.712891)"/>
</clipPath>
</defs>
</svg>
